<?xml version="1.0" encoding="utf-8"?>
<!-- Generator: Adobe Illustrator 27.0.0, SVG Export Plug-In . SVG Version: 6.00 Build 0)  -->
<svg version="1.1" id="Layer_1" xmlns="http://www.w3.org/2000/svg" xmlns:xlink="http://www.w3.org/1999/xlink" x="0px" y="0px"
	 viewBox="0 0 1174.428 401.805" style="enable-background:new 0 0 1174.428 401.805;" xml:space="preserve">
<style type="text/css">
	.st0{display:none;fill:#E41E26;}
	.st1{display:none;}
	.st2{display:inline;}
	.st3{fill:#E41E26;}
	.st4{fill:#293788;}
	.st5{fill:none;stroke:#293987;stroke-width:7;stroke-miterlimit:10;}
</style>
<path class="st0" d="M659.093,152.79c-7.617-7.568-16.303-12.821-26.05-15.768v36.282c0,1.464,0.589,2.867,1.634,3.893l0,0
	c5.982,5.905,8.979,13.074,8.979,21.508c0,8.434-2.996,15.642-8.979,21.634c-5.992,5.982-13.2,8.979-21.634,8.979
	c-8.434,0-15.593-2.996-21.498-8.979c-5.905-5.992-8.852-13.2-8.852-21.634c0-8.434,2.947-15.603,8.852-21.508
	c0.574-0.574,1.158-1.119,1.761-1.634v-38.609c-9.825,2.928-18.55,8.21-26.177,15.837c-12.393,12.393-18.589,27.694-18.589,45.914
	c0,18.21,6.196,33.56,18.589,46.041c12.393,12.48,27.704,18.726,45.914,18.726c18.22,0,33.56-6.245,46.05-18.726
	c12.481-12.48,18.716-27.831,18.716-46.041C677.809,180.484,671.573,165.183,659.093,152.79z"/>
<g class="st1">
	<path class="st2" d="M540.211,376.623l-1.728-4.542h-14.712l-1.728,4.641c-0.675,1.811-1.251,3.032-1.728,3.666
		c-0.478,0.633-1.259,0.95-2.345,0.95c-0.922,0-1.736-0.338-2.444-1.012c-0.708-0.675-1.062-1.44-1.062-2.296
		c0-0.494,0.083-1.004,0.247-1.53c0.164-0.526,0.436-1.259,0.814-2.197l9.256-23.499c0.263-0.674,0.58-1.484,0.95-2.431
		c0.371-0.946,0.765-1.732,1.185-2.357c0.419-0.625,0.971-1.131,1.654-1.519c0.683-0.386,1.526-0.58,2.53-0.58
		c1.021,0,1.872,0.194,2.555,0.58c0.683,0.388,1.234,0.885,1.654,1.494c0.419,0.608,0.773,1.263,1.061,1.962
		s0.654,1.634,1.099,2.802l9.454,23.351c0.741,1.777,1.111,3.069,1.111,3.875c0,0.84-0.35,1.609-1.049,2.309
		c-0.7,0.699-1.543,1.049-2.53,1.049c-0.576,0-1.07-0.104-1.481-0.309c-0.412-0.206-0.757-0.485-1.037-0.839
		c-0.28-0.354-0.58-0.897-0.901-1.63C540.717,377.829,540.442,377.182,540.211,376.623z M525.698,366.577h10.811l-5.455-14.934
		L525.698,366.577z"/>
	<path class="st2" d="M552.454,372.279l18.586-22.24h-15.97c-1.119,0-1.962-0.247-2.53-0.74c-0.568-0.494-0.852-1.144-0.852-1.95
		c0-0.84,0.284-1.519,0.852-2.036c0.567-0.519,1.411-0.778,2.53-0.778h20.586c2.667,0,3.999,1.243,3.999,3.728
		c0,1.185-0.223,2.131-0.666,2.839c-0.445,0.707-1.342,1.851-2.691,3.431l-17.377,20.685h19.154c1.137,0,1.982,0.235,2.543,0.704
		c0.559,0.469,0.84,1.123,0.84,1.962c0,0.873-0.281,1.563-0.84,2.073c-0.561,0.511-1.406,0.766-2.543,0.766h-23.499
		c-1.596,0-2.797-0.358-3.604-1.074c-0.807-0.716-1.209-1.674-1.209-2.875c0-0.411,0.065-0.79,0.197-1.136
		c0.131-0.346,0.309-0.67,0.531-0.975s0.531-0.691,0.926-1.16C551.812,373.032,552.158,372.624,552.454,372.279z"/>
	<path class="st2" d="M601.995,343.917c3.752,0,6.974,0.762,9.664,2.283c2.69,1.522,4.727,3.687,6.109,6.492
		c1.382,2.806,2.073,6.102,2.073,9.886c0,2.798-0.379,5.34-1.136,7.627c-0.757,2.288-1.893,4.271-3.406,5.949
		c-1.515,1.679-3.374,2.962-5.578,3.851c-2.206,0.889-4.731,1.333-7.578,1.333c-2.831,0-5.365-0.457-7.603-1.37
		c-2.238-0.913-4.106-2.2-5.604-3.863c-1.497-1.661-2.629-3.661-3.394-5.998c-0.766-2.336-1.148-4.862-1.148-7.577
		c0-2.781,0.399-5.332,1.197-7.652s1.954-4.295,3.469-5.924c1.514-1.629,3.356-2.876,5.528-3.74
		C596.762,344.349,599.23,343.917,601.995,343.917z M612.411,362.529c0-2.649-0.429-4.945-1.284-6.887
		c-0.855-1.942-2.077-3.41-3.665-4.406c-1.589-0.996-3.411-1.493-5.468-1.493c-1.465,0-2.818,0.275-4.061,0.826
		c-1.242,0.552-2.312,1.354-3.209,2.407c-0.896,1.053-1.604,2.398-2.122,4.035c-0.519,1.638-0.778,3.477-0.778,5.518
		c0,2.057,0.26,3.916,0.778,5.578c0.518,1.662,1.25,3.04,2.196,4.135s2.032,1.913,3.259,2.456c1.226,0.543,2.57,0.814,4.035,0.814
		c1.876,0,3.6-0.469,5.172-1.407c1.571-0.938,2.821-2.386,3.752-4.345C611.946,367.803,612.411,365.392,612.411,362.529z"/>
	<path class="st2" d="M635.959,365.244h-2.566v11.626c0,1.53-0.338,2.657-1.013,3.382c-0.675,0.724-1.555,1.086-2.641,1.086
		c-1.169,0-2.073-0.379-2.716-1.136c-0.642-0.757-0.962-1.867-0.962-3.332v-27.843c0-1.58,0.354-2.724,1.061-3.432
		c0.708-0.707,1.852-1.062,3.432-1.062h11.922c1.646,0,3.053,0.07,4.221,0.21c1.169,0.141,2.222,0.424,3.16,0.852
		c1.135,0.478,2.139,1.16,3.011,2.049s1.534,1.922,1.987,3.098c0.452,1.177,0.679,2.424,0.679,3.74c0,2.698-0.761,4.854-2.283,6.467
		c-1.522,1.613-3.83,2.757-6.924,3.431c1.3,0.691,2.543,1.712,3.728,3.061c1.185,1.35,2.242,2.786,3.172,4.308
		c0.93,1.522,1.653,2.896,2.172,4.122c0.519,1.227,0.777,2.069,0.777,2.53c0,0.478-0.152,0.95-0.456,1.419
		c-0.305,0.47-0.721,0.84-1.247,1.111s-1.135,0.407-1.826,0.407c-0.823,0-1.515-0.193-2.073-0.58
		c-0.56-0.387-1.041-0.876-1.444-1.469s-0.95-1.465-1.642-2.616l-2.938-4.888c-1.053-1.793-1.995-3.159-2.826-4.098
		c-0.831-0.938-1.675-1.579-2.53-1.925S637.259,365.244,635.959,365.244z M640.156,350.039h-6.763v9.947h6.565
		c1.761,0,3.241-0.151,4.443-0.456c1.201-0.305,2.118-0.823,2.752-1.556c0.633-0.731,0.95-1.74,0.95-3.023
		c0-1.004-0.255-1.889-0.765-2.653c-0.511-0.766-1.219-1.337-2.123-1.716C644.36,350.221,642.673,350.039,640.156,350.039z"/>
	<path class="st2" d="M686.315,350.187h-16.514v8.886h15.205c1.119,0,1.954,0.251,2.506,0.753c0.551,0.502,0.826,1.164,0.826,1.987
		c0,0.822-0.271,1.493-0.814,2.012c-0.543,0.518-1.382,0.777-2.518,0.777h-15.205v10.293h17.081c1.151,0,2.02,0.268,2.604,0.802
		c0.584,0.535,0.876,1.247,0.876,2.136c0,0.855-0.292,1.551-0.876,2.086c-0.585,0.534-1.453,0.802-2.604,0.802h-19.92
		c-1.596,0-2.744-0.354-3.443-1.062c-0.699-0.707-1.049-1.852-1.049-3.431v-27.201c0-1.054,0.156-1.913,0.469-2.58
		c0.312-0.666,0.803-1.151,1.469-1.456c0.667-0.305,1.519-0.457,2.555-0.457h19.353c1.168,0,2.036,0.26,2.604,0.778
		c0.568,0.518,0.852,1.196,0.852,2.036c0,0.855-0.283,1.543-0.852,2.061C688.351,349.928,687.483,350.187,686.315,350.187z"/>
</g>
<g>
	<g>
		<path class="st3" d="M244.888,251.723c-26.618,0-48.984-9.115-67.098-27.356c-18.116-18.236-27.172-40.665-27.172-67.283
			c0-26.617,9.056-48.983,27.172-67.097c18.114-18.115,40.48-27.173,67.098-27.173c26.617,0,49.041,9.058,67.283,27.173
			c18.235,18.114,27.357,40.48,27.357,67.097v69.132c0,7.393-2.346,13.372-7.024,17.929c-4.685,4.557-10.721,6.839-18.114,6.839
			c-7.395,0-13.372-2.282-17.931-6.839c-4.563-4.557-6.838-10.536-6.838-17.929v-69.132c0-12.321-4.38-22.793-13.125-31.423
			c-8.751-8.624-19.287-12.939-31.607-12.939c-12.327,0-22.799,4.315-31.424,12.939c-8.63,8.63-12.939,19.102-12.939,31.423
			c0,12.327,4.309,22.863,12.939,31.608c8.625,8.751,19.097,13.124,31.424,13.124c7.393,0,13.429,2.282,18.114,6.839
			c4.679,4.563,7.024,10.536,7.024,17.929s-2.345,13.436-7.024,18.114C258.317,249.378,252.282,251.723,244.888,251.723z"/>
		<path class="st3" d="M392.783,62.813h102.773c17.745,0,26.618,5.424,26.618,16.266c0,12.569-11.339,32.411-34.011,59.52
			c-8.63,10.352-26.744,31.181-54.344,62.477h50.278c7.393,0,13.367,2.345,17.929,7.023c4.557,4.685,6.839,10.722,6.839,18.116
			c0,7.15-2.346,13.065-7.024,17.745c-4.685,4.678-10.6,7.024-17.745,7.024H380.584c-17.993,0-26.987-5.546-26.987-16.636
			c0-12.57,11.333-32.284,34.011-59.15c5.175-6.157,23.411-26.987,54.713-62.477h-49.538c-7.15,0-13.065-2.403-17.745-7.209
			c-4.685-4.806-7.024-10.779-7.024-17.93c0-7.393,2.277-13.366,6.839-17.929C379.411,65.096,385.39,62.813,392.783,62.813z"/>
		<path class="st4" d="M623.816,139.36h-12.72c-7.615,0-13.787-6.173-13.787-13.787V65.318c0-7.614,6.173-13.787,13.787-13.787
			h12.72c7.614,0,13.787,6.173,13.787,13.787v60.255C637.603,133.187,631.431,139.36,623.816,139.36z"/>
		<path class="st3" d="M711.906,156.528c0,53.653-44.717,96.858-98.923,94.354c-48.871-2.258-88.323-42.281-89.926-91.177
			c-0.931-28.382,10.66-54.067,29.67-71.959c13.5-12.706,35.699-2.869,35.699,15.669v3.447c0,8.984-2.805,17.719-7.916,25.107
			c-4.969,7.182-7.88,15.904-7.88,25.305c0,24.593,19.947,44.54,44.555,44.54c24.608,0,44.54-19.947,44.54-44.54
			c0-9.366-2.887-18.052-7.82-25.22c-5.069-7.366-7.845-16.063-7.845-25.005v-4.042c0-18.407,21.974-28.347,35.491-15.853
			C700.219,104.406,711.906,129.096,711.906,156.528z"/>
		<path class="st3" d="M1023.81,156.751v0.19c0,11.12-9.031,20.151-20.151,20.151h-54.448c-11.12,0-20.151-9.031-20.151-20.151
			c0-5.568,2.25-10.609,5.904-14.248c3.653-3.653,8.68-5.904,14.248-5.904h20.063c-1.271-2.499-2.82-4.895-4.647-7.175
			c-1.169-1.476-2.455-2.908-3.858-4.282c-4.691-4.618-9.893-8.008-15.607-10.141c-0.278-0.117-0.57-0.219-0.848-0.322
			c-4.705-1.651-9.776-2.484-15.154-2.484c-12.319,0-22.796,4.325-31.418,12.947c-8.636,8.622-12.947,19.099-12.947,31.418
			c0,12.333,4.311,22.869,12.947,31.608c2.104,2.133,4.325,4.019,6.649,5.626c0.044,0.044,0.102,0.073,0.161,0.117
			c4.223,2.674,8.972,4.691,14.145,5.86c9.133,2.046,18.164,0.935,26.318-2.104c50.078-18.734,50.692,26.42,37.76,36.81
			c-16.98,13.619-39.762,18.894-62.762,16.352c-0.073,0-0.146,0-0.219-0.015c-22.533-1.914-41.778-10.901-57.721-26.961
			c-13.269-13.356-21.671-28.948-25.222-46.805c-2.601-11.763-2.981-24.184-0.745-36.708c2.996-19.61,11.661-36.576,25.967-50.867
			c17.229-17.243,38.33-26.289,63.274-27.107c0.438-0.015,0.891-0.029,1.33-0.044c0.818-0.015,1.651-0.029,2.484-0.029
			s1.666,0.015,2.484,0.029c0.643,0.015,1.286,0.029,1.944,0.058c24.696,0.95,45.636,9.981,62.865,27.092
			C1014.677,107.769,1023.81,130.141,1023.81,156.751z"/>
		<path class="st3" d="M929.162,66.867c0.833,0,1.666,0.015,2.484,0.029c-1.666-0.044-3.317-0.044-4.968,0
			C927.496,66.882,928.329,66.867,929.162,66.867z"/>
		<path class="st3" d="M780.184,142.296v83.919c0,7.393-2.345,13.372-7.024,17.929c-4.684,4.557-10.721,6.839-18.114,6.839
			c-7.393,0-13.372-2.282-17.93-6.839c-4.564-4.557-6.839-10.536-6.839-17.929v-83.919c0-22.424,7.7-41.278,23.106-56.562
			c15.399-15.278,34.317-22.921,56.747-22.921c7.145,0,13.06,2.345,17.745,7.024c4.678,4.685,7.024,10.6,7.024,17.745
			c0,15.284-8.504,23.661-25.509,25.139c-8.382,0.739-15.342,3.761-20.888,9.057C782.958,127.081,780.184,133.921,780.184,142.296z"
			/>
	</g>
	<g>
		<path class="st4" d="M157.266,299.329h26.795c3.672,0,6.648,2.976,6.648,6.648v0c0,3.672-2.976,6.648-6.648,6.648h-6.851v31.001
			c0,3.672-2.976,6.648-6.648,6.648h-0.068c-3.672,0-6.648-2.976-6.648-6.648v-31.001h-6.581c-3.672,0-6.648-2.976-6.648-6.648v0
			C150.618,302.305,153.595,299.329,157.266,299.329z"/>
		<path class="st4" d="M205.399,299.397h20.69c3.016,0,5.461,2.445,5.461,5.461v0.137c0,3.016-2.445,5.461-5.461,5.461h-12.787
			v8.276h10.685c3.016,0,5.461,2.445,5.461,5.461v0.34c0,3.016-2.445,5.461-5.461,5.461h-10.685v9.361h12.787
			c3.016,0,5.461,2.445,5.461,5.461l0,0c0,3.016-2.445,5.461-5.461,5.461h-20.69c-3.016,0-5.461-2.445-5.461-5.461v-39.956
			C199.939,301.841,202.383,299.397,205.399,299.397z"/>
		<path class="st4" d="M267.541,313.935c-1.54-0.674-3.289-1.038-5.179-1.039c-6.716,0-11.887,5.112-11.94,11.828
			c-0.055,6.977,4.982,12.051,11.939,12.051c1.899,0,3.656-0.368,5.201-1.059c2.427-1.085,5.285-0.421,7.178,1.445l0,0
			c3.267,3.221,2.452,8.814-1.707,10.751c-4.392,2.045-9.46,2.883-14.78,2.035c-11.209-1.785-20.004-11.082-21.187-22.371
			c-1.599-15.269,10.349-28.179,25.295-28.179c3.693,0,7.197,0.777,10.36,2.191c4.257,1.902,5.264,7.504,1.979,10.813l-0.006,0.006
			C272.824,314.29,269.972,314.998,267.541,313.935z"/>
		<path class="st4" d="M299.485,306.078v11.431h16.145v-11.431c0-3.69,2.992-6.682,6.682-6.682l0,0c3.69,0,6.682,2.992,6.682,6.682
			v37.514c0,3.69-2.992,6.682-6.682,6.682l0,0c-3.69,0-6.682-2.992-6.682-6.682v-12.719h-16.145v12.719
			c0,3.69-2.992,6.682-6.682,6.682l0,0c-3.69,0-6.682-2.992-6.682-6.682v-37.514c0-3.69,2.992-6.682,6.682-6.682l0,0
			C296.493,299.397,299.485,302.388,299.485,306.078z"/>
		<path class="st4" d="M375.493,349.146l-22.889-22.953v17.4c0,3.69-2.992,6.682-6.682,6.682l0,0c-3.69,0-6.682-2.992-6.682-6.682
			v-40.356c0-2.12,1.719-3.839,3.839-3.839l0,0c1.016,0,1.991,0.403,2.711,1.121l22.959,22.893v-17.332
			c0-3.69,2.992-6.682,6.682-6.682l0,0c3.69,0,6.682,2.992,6.682,6.682v40.356c0,2.12-1.719,3.839-3.839,3.839h-0.062
			C377.192,350.274,376.214,349.868,375.493,349.146z"/>
		<path class="st4" d="M413.321,299.397c14.042,0,25.438,11.465,25.438,25.507c0,14.042-11.396,25.371-25.438,25.371
			c-14.042,0-25.371-11.329-25.371-25.371C387.95,310.861,399.279,299.397,413.321,299.397z M413.321,312.693
			c-6.648,0-12.075,5.427-12.075,12.143c0,6.647,5.427,12.142,12.075,12.142c6.716,0,12.142-5.495,12.142-12.142
			C425.463,318.119,420.037,312.693,413.321,312.693z"/>
		<path class="st4" d="M454.738,299.397L454.738,299.397c3.69,0,6.682,2.992,6.682,6.682v30.764h11.634
			c3.69,0,6.682,2.992,6.682,6.682v0.068c0,3.69-2.992,6.682-6.682,6.682h-18.316c-3.69,0-6.682-2.992-6.682-6.682v-37.514
			C448.056,302.388,451.048,299.397,454.738,299.397z"/>
		<path class="st4" d="M511.62,299.397c14.042,0,25.438,11.465,25.438,25.507c0,14.042-11.396,25.371-25.438,25.371
			s-25.371-11.329-25.371-25.371C486.249,310.861,497.578,299.397,511.62,299.397z M511.62,312.693
			c-6.648,0-12.075,5.427-12.075,12.143c0,6.647,5.427,12.142,12.075,12.142c6.716,0,12.142-5.495,12.142-12.142
			C523.762,318.119,518.336,312.693,511.62,312.693z"/>
		<path class="st4" d="M594.689,329.327c0,0.417-0.045,0.833-0.119,1.235c0,0.015,0,0.045-0.015,0.059
			c-0.074,0.268-0.149,0.536-0.223,0.788c0,0.045-0.015,0.089-0.045,0.134c-3.153,10.501-12.761,18.607-24.036,18.726
			c-14.636,0.164-26.416-12.062-25.627-26.847c0.669-12.36,10.411-22.653,22.742-23.902c4.715-0.461,9.192,0.372,13.119,2.171
			c4.165,1.904,4.983,7.481,1.74,10.694v0.015c-1.919,1.904-4.804,2.514-7.273,1.413c-1.487-0.669-3.153-1.056-4.983-1.056
			c-6.381,0-12.018,5.087-12.018,12.077c0,6.991,5.771,12.077,12.018,12.077c4.001,0,7.734-1.963,9.831-5.027h-5.354
			c-2.484,0-4.477-1.993-4.477-4.477c0-1.235,0.491-2.35,1.309-3.168c0.803-0.803,1.919-1.309,3.168-1.309h14.16
			C591.997,323.095,594.689,325.891,594.689,329.327z"/>
		<path class="st4" d="M609.345,299.397L609.345,299.397c3.69,0,6.682,2.991,6.682,6.681v37.514c0,3.69-2.991,6.681-6.682,6.681l0,0
			c-3.69,0-6.681-2.991-6.681-6.681v-37.514C602.664,302.388,605.655,299.397,609.345,299.397z"/>
		<path class="st4" d="M631.73,299.397h20.691c3.016,0,5.461,2.445,5.461,5.461v0.137c0,3.016-2.445,5.461-5.461,5.461h-12.787
			v8.276h10.684c3.016,0,5.461,2.445,5.461,5.461v0.34c0,3.016-2.445,5.461-5.461,5.461h-10.684v9.361h12.787
			c3.016,0,5.461,2.445,5.461,5.461l0,0c0,3.016-2.445,5.461-5.461,5.461H631.73c-3.016,0-5.461-2.445-5.461-5.461v-39.956
			C626.27,301.841,628.714,299.397,631.73,299.397z"/>
		<path class="st4" d="M744.685,299.397L744.685,299.397c3.69,0,6.682,2.992,6.682,6.682v30.764h11.634
			c3.69,0,6.682,2.992,6.682,6.682v0.067c0,3.69-2.992,6.682-6.682,6.682h-18.316c-3.69,0-6.682-2.992-6.682-6.682v-37.513
			C738.003,302.388,740.995,299.397,744.685,299.397z"/>
		<path class="st4" d="M785.864,299.397L785.864,299.397c3.69,0,6.681,2.991,6.681,6.681v37.514c0,3.69-2.991,6.681-6.681,6.681l0,0
			c-3.69,0-6.682-2.991-6.682-6.681v-37.514C779.183,302.388,782.174,299.397,785.864,299.397z"/>
		<path class="st4" d="M834.085,314.153l14.945-13.621c0.801-0.73,1.847-1.135,2.931-1.135l0,0c2.403,0,4.351,1.948,4.351,4.351
			v39.811c0,3.709-3.007,6.716-6.716,6.716h0c-3.709,0-6.716-3.007-6.716-6.716v-19.401l-2.988,2.729
			c-5.846,5.339-14.791,5.362-20.665,0.054l-3.006-2.716v19.333c0,3.709-3.007,6.716-6.716,6.716h-0.001
			c-3.709,0-6.716-3.007-6.716-6.716v-39.811c0-2.403,1.948-4.351,4.351-4.351h0.005c1.082,0,2.125,0.403,2.926,1.131l15.006,13.633
			C827.633,316.482,831.534,316.478,834.085,314.153z"/>
		<path class="st4" d="M873.173,299.397L873.173,299.397c3.69,0,6.682,2.991,6.682,6.681v37.514c0,3.69-2.991,6.681-6.681,6.681h0
			c-3.69,0-6.681-2.991-6.681-6.681v-37.514C866.491,302.388,869.483,299.397,873.173,299.397z"/>
		<path class="st4" d="M895.662,299.329h26.796c3.672,0,6.648,2.976,6.648,6.648v0c0,3.672-2.976,6.648-6.648,6.648h-6.851v31.001
			c0,3.672-2.976,6.648-6.648,6.648h-0.068c-3.672,0-6.648-2.976-6.648-6.648v-31.001h-6.58c-3.672,0-6.648-2.976-6.648-6.648v0
			C889.014,302.305,891.99,299.329,895.662,299.329z"/>
		<path class="st4" d="M943.794,299.397h20.691c3.016,0,5.461,2.445,5.461,5.461v0.137c0,3.016-2.445,5.461-5.461,5.461h-12.787
			v8.276h10.684c3.016,0,5.461,2.445,5.461,5.461v0.34c0,3.016-2.445,5.461-5.461,5.461h-10.684v9.361h12.787
			c3.016,0,5.461,2.445,5.461,5.461l0,0c0,3.016-2.445,5.461-5.461,5.461h-20.691c-3.016,0-5.461-2.445-5.461-5.461v-39.956
			C938.333,301.841,940.778,299.397,943.794,299.397z"/>
		<path class="st4" d="M985.88,299.397h11.822c14.249,0,26.362,11.66,26.104,25.907c-0.25,13.826-11.55,24.97-25.435,24.97H985.88
			c-3.517,0-6.369-2.851-6.369-6.369v-38.14C979.512,302.248,982.363,299.397,985.88,299.397z M995.695,337.114l2.316,0
			c5.985,0,11.358-4.175,12.337-10.079c1.234-7.442-4.599-14.003-11.909-14.003h-2.744c-1.595,0-2.887,1.293-2.887,2.887v18.307
			C992.808,335.821,994.1,337.114,995.695,337.114z"/>
		<path class="st4" d="M697.971,334.667c0,8.686-6.976,15.602-15.662,15.602c-5.161,0-9.712-2.41-12.568-6.247
			c-0.223-0.297-0.446-0.61-0.654-0.937c0-0.015-0.015-0.045-0.03-0.059c-0.446-0.818-0.699-1.755-0.699-2.752
			c0-2.915,2.172-5.325,5.013-5.801c0.327-0.06,0.669-0.089,1.011-0.089c0.342,0,0.684,0.03,1.011,0.089
			c1.517,0.238,2.841,1.041,3.748,2.186c0.074,0.104,0.164,0.208,0.238,0.312c0.699,0.833,1.755,1.368,2.93,1.368
			c2.097,0,3.867-1.696,3.867-3.808c0-2.097-1.77-3.867-3.867-3.867c-8.686,0-15.602-6.916-15.602-15.602
			c0-8.686,6.916-15.662,15.602-15.662c4.998,0,9.415,2.305,12.271,5.905c0.104,0.089,0.193,0.193,0.253,0.297
			c0.089,0.104,0.164,0.208,0.238,0.312c0.104,0.149,0.208,0.297,0.297,0.446c0.03,0.015,0.03,0.045,0.045,0.074
			c0.461,0.818,0.729,1.755,0.729,2.767c0,3.198-1.916,6.065-5.619,5.424c-4.418-0.765-3.631-3.49-8.214-3.49
			c-2.112,0-3.808,1.755-3.808,3.867c0,2.097,1.696,3.793,3.808,3.793c4.953,0,9.43,2.38,12.271,6.039
			C696.751,327.542,697.971,330.934,697.971,334.667z"/>
		<path class="st4" d="M588.605,322.932h-0.654c0.104-0.015,0.208-0.015,0.327-0.015
			C588.382,322.917,588.501,322.917,588.605,322.932z"/>
	</g>
</g>
</svg>
